<?xml version="1.0" encoding="utf-8"?>
<!-- Generator: Adobe Illustrator 17.0.0, SVG Export Plug-In . SVG Version: 6.00 Build 0)  -->
<!DOCTYPE svg PUBLIC "-//W3C//DTD SVG 1.1//EN" "http://www.w3.org/Graphics/SVG/1.1/DTD/svg11.dtd">
<svg version="1.1" id="Calque_1" xmlns="http://www.w3.org/2000/svg" xmlns:xlink="http://www.w3.org/1999/xlink" x="0px" y="0px"
	 width="93.113px" height="26.84px" viewBox="0 0 93.113 26.84" enable-background="new 0 0 93.113 26.84" xml:space="preserve">
<path fill="none" stroke="#010101" stroke-width="0.75" stroke-miterlimit="10" d="M0.375,22.145
	c5.07-4.517,10.115-9.089,15.233-13.528c1.83-1.586,3.832-2.885,5.783-4.258c2.65-1.864,5.588-2.548,8.584-2.947
	c7.01-0.938,14.049-0.963,21.09-0.972C59.676,0.43,68.289,0.397,76.9,0.38c5.182-0.01,10.361-0.002,15.609-0.002
	c0,1.326,0.229,5.793,0.229,7.232c-1.094,0-2.174,0.015-3.252-0.002C83.799,7.515,78.115,7.4,72.43,7.321
	c-5.926-0.083-17.625,0.141-23.551,0.13c-6.961-0.014-8.377-3.383-15.334-3.23c-2.402,0.054-4.814,0.47-7.186,0.961
	c-3.059,0.633-5.512,2.787-7.77,5.23c-2.658,2.877-5.219,5.888-7.879,8.763c-2.102,2.271-4.285,4.435-6.453,6.62
	c-0.9,0.907-1.393,0.916-2.199-0.121c-0.642-0.824-1.129-1.83-1.684-2.755V22.145z"/>
</svg>
